<svg xmlns="http://www.w3.org/2000/svg" version="1.1" xmlns:xlink="http://www.w3.org/1999/xlink" xmlns:svgjs="http://svgjs.dev/svgjs" viewBox="0 0 1422 800" opacity="0.73"><g fill="none" stroke-width="0.5" stroke="hsl(210, 77%, 57%)" stroke-linecap="square" stroke-dasharray="61 33" transform="matrix(0.9,0,0,0.9,71.1000049591064,40)"><line x1="958" y1="400" x2="464" y2="400" transform="rotate(0, 711, 400)" opacity="0.88"></line><line x1="1055.5" y1="400" x2="366.5" y2="400" transform="rotate(4, 711, 400)" opacity="0.22"></line><line x1="949.5" y1="400" x2="472.5" y2="400" transform="rotate(8, 711, 400)" opacity="0.74"></line><line x1="982" y1="400" x2="440" y2="400" transform="rotate(12, 711, 400)" opacity="0.56"></line><line x1="1080.5" y1="400" x2="341.5" y2="400" transform="rotate(16, 711, 400)" opacity="0.79"></line><line x1="1405" y1="400" x2="17" y2="400" transform="rotate(20, 711, 400)" opacity="0.85"></line><line x1="1366.5" y1="400" x2="55.5" y2="400" transform="rotate(24, 711, 400)" opacity="0.26"></line><line x1="1049" y1="400" x2="373" y2="400" transform="rotate(28, 711, 400)" opacity="0.35"></line><line x1="1176.5" y1="400" x2="245.5" y2="400" transform="rotate(32, 711, 400)" opacity="0.44"></line><line x1="1358" y1="400" x2="64" y2="400" transform="rotate(36, 711, 400)" opacity="0.32"></line><line x1="1157" y1="400" x2="265" y2="400" transform="rotate(40, 711, 400)" opacity="0.59"></line><line x1="1371.5" y1="400" x2="50.5" y2="400" transform="rotate(44, 711, 400)" opacity="0.80"></line><line x1="1257.5" y1="400" x2="164.5" y2="400" transform="rotate(48, 711, 400)" opacity="0.59"></line><line x1="1298.5" y1="400" x2="123.5" y2="400" transform="rotate(52, 711, 400)" opacity="0.70"></line><line x1="1156" y1="400" x2="266" y2="400" transform="rotate(56, 711, 400)" opacity="0.43"></line><line x1="1281" y1="400" x2="141" y2="400" transform="rotate(60, 711, 400)" opacity="0.45"></line><line x1="1350" y1="400" x2="72" y2="400" transform="rotate(64, 711, 400)" opacity="0.62"></line><line x1="1350" y1="400" x2="72" y2="400" transform="rotate(68, 711, 400)" opacity="0.09"></line><line x1="1329" y1="400" x2="93" y2="400" transform="rotate(72, 711, 400)" opacity="0.74"></line><line x1="1029" y1="400" x2="393" y2="400" transform="rotate(76, 711, 400)" opacity="0.38"></line><line x1="1396.5" y1="400" x2="25.5" y2="400" transform="rotate(80, 711, 400)" opacity="0.49"></line><line x1="1346.5" y1="400" x2="75.5" y2="400" transform="rotate(84, 711, 400)" opacity="0.55"></line><line x1="1225" y1="400" x2="197" y2="400" transform="rotate(88, 711, 400)" opacity="0.87"></line><line x1="1194.5" y1="400" x2="227.5" y2="400" transform="rotate(92, 711, 400)" opacity="0.90"></line><line x1="1263.5" y1="400" x2="158.5" y2="400" transform="rotate(96, 711, 400)" opacity="0.79"></line><line x1="1278.5" y1="400" x2="143.5" y2="400" transform="rotate(100, 711, 400)" opacity="0.41"></line><line x1="1284.5" y1="400" x2="137.5" y2="400" transform="rotate(104, 711, 400)" opacity="0.76"></line><line x1="1001" y1="400" x2="421" y2="400" transform="rotate(108, 711, 400)" opacity="0.25"></line><line x1="953" y1="400" x2="469" y2="400" transform="rotate(112, 711, 400)" opacity="0.94"></line><line x1="1303.5" y1="400" x2="118.5" y2="400" transform="rotate(116, 711, 400)" opacity="0.97"></line><line x1="1046" y1="400" x2="376" y2="400" transform="rotate(120, 711, 400)" opacity="0.73"></line><line x1="1332.5" y1="400" x2="89.5" y2="400" transform="rotate(124, 711, 400)" opacity="0.62"></line><line x1="1177" y1="400" x2="245" y2="400" transform="rotate(128, 711, 400)" opacity="0.59"></line><line x1="997" y1="400" x2="425" y2="400" transform="rotate(132, 711, 400)" opacity="0.56"></line><line x1="1028" y1="400" x2="394" y2="400" transform="rotate(136, 711, 400)" opacity="0.95"></line><line x1="1195.5" y1="400" x2="226.5" y2="400" transform="rotate(140, 711, 400)" opacity="0.76"></line><line x1="1053.5" y1="400" x2="368.5" y2="400" transform="rotate(144, 711, 400)" opacity="0.87"></line><line x1="1383" y1="400" x2="39" y2="400" transform="rotate(148, 711, 400)" opacity="0.57"></line><line x1="938" y1="400" x2="484" y2="400" transform="rotate(152, 711, 400)" opacity="0.55"></line><line x1="976" y1="400" x2="446" y2="400" transform="rotate(156, 711, 400)" opacity="0.93"></line><line x1="1162" y1="400" x2="260" y2="400" transform="rotate(160, 711, 400)" opacity="0.38"></line><line x1="1207" y1="400" x2="215" y2="400" transform="rotate(164, 711, 400)" opacity="0.74"></line><line x1="1064" y1="400" x2="358" y2="400" transform="rotate(168, 711, 400)" opacity="0.60"></line><line x1="1230" y1="400" x2="192" y2="400" transform="rotate(172, 711, 400)" opacity="0.19"></line><line x1="1156" y1="400" x2="266" y2="400" transform="rotate(176, 711, 400)" opacity="0.47"></line><line x1="1346.5" y1="400" x2="75.5" y2="400" transform="rotate(180, 711, 400)" opacity="0.44"></line><line x1="986.5" y1="400" x2="435.5" y2="400" transform="rotate(184, 711, 400)" opacity="0.09"></line><line x1="1255.5" y1="400" x2="166.5" y2="400" transform="rotate(188, 711, 400)" opacity="0.67"></line><line x1="1041" y1="400" x2="381" y2="400" transform="rotate(192, 711, 400)" opacity="0.68"></line><line x1="1078.5" y1="400" x2="343.5" y2="400" transform="rotate(196, 711, 400)" opacity="0.15"></line><line x1="1293" y1="400" x2="129" y2="400" transform="rotate(200, 711, 400)" opacity="0.12"></line><line x1="975.5" y1="400" x2="446.5" y2="400" transform="rotate(204, 711, 400)" opacity="0.87"></line><line x1="1296.5" y1="400" x2="125.5" y2="400" transform="rotate(208, 711, 400)" opacity="0.14"></line><line x1="954" y1="400" x2="468" y2="400" transform="rotate(212, 711, 400)" opacity="0.93"></line><line x1="1254.5" y1="400" x2="167.5" y2="400" transform="rotate(216, 711, 400)" opacity="0.69"></line><line x1="1238.5" y1="400" x2="183.5" y2="400" transform="rotate(220, 711, 400)" opacity="0.24"></line><line x1="957.5" y1="400" x2="464.5" y2="400" transform="rotate(224, 711, 400)" opacity="0.69"></line><line x1="1115" y1="400" x2="307" y2="400" transform="rotate(228, 711, 400)" opacity="0.32"></line><line x1="1215.5" y1="400" x2="206.5" y2="400" transform="rotate(232, 711, 400)" opacity="0.08"></line><line x1="1013" y1="400" x2="409" y2="400" transform="rotate(236, 711, 400)" opacity="0.20"></line><line x1="1412" y1="400" x2="10" y2="400" transform="rotate(240, 711, 400)" opacity="0.40"></line><line x1="1411" y1="400" x2="11" y2="400" transform="rotate(244, 711, 400)" opacity="0.14"></line><line x1="947" y1="400" x2="475" y2="400" transform="rotate(248, 711, 400)" opacity="0.45"></line><line x1="1248" y1="400" x2="174" y2="400" transform="rotate(252, 711, 400)" opacity="0.77"></line><line x1="1337.5" y1="400" x2="84.5" y2="400" transform="rotate(256, 711, 400)" opacity="0.43"></line><line x1="1039" y1="400" x2="383" y2="400" transform="rotate(260, 711, 400)" opacity="0.34"></line><line x1="1110.5" y1="400" x2="311.5" y2="400" transform="rotate(264, 711, 400)" opacity="0.35"></line><line x1="983.5" y1="400" x2="438.5" y2="400" transform="rotate(268, 711, 400)" opacity="0.72"></line><line x1="972.5" y1="400" x2="449.5" y2="400" transform="rotate(272, 711, 400)" opacity="0.93"></line><line x1="1124" y1="400" x2="298" y2="400" transform="rotate(276, 711, 400)" opacity="0.08"></line><line x1="947.5" y1="400" x2="474.5" y2="400" transform="rotate(280, 711, 400)" opacity="0.09"></line><line x1="1038.5" y1="400" x2="383.5" y2="400" transform="rotate(284, 711, 400)" opacity="0.43"></line><line x1="1303.5" y1="400" x2="118.5" y2="400" transform="rotate(288, 711, 400)" opacity="0.08"></line><line x1="946" y1="400" x2="476" y2="400" transform="rotate(292, 711, 400)" opacity="0.58"></line><line x1="1057" y1="400" x2="365" y2="400" transform="rotate(296, 711, 400)" opacity="0.88"></line><line x1="1179" y1="400" x2="243" y2="400" transform="rotate(300, 711, 400)" opacity="0.81"></line><line x1="1025.5" y1="400" x2="396.5" y2="400" transform="rotate(304, 711, 400)" opacity="0.67"></line><line x1="1040.5" y1="400" x2="381.5" y2="400" transform="rotate(308, 711, 400)" opacity="0.48"></line><line x1="1180" y1="400" x2="242" y2="400" transform="rotate(312, 711, 400)" opacity="0.52"></line><line x1="1209.5" y1="400" x2="212.5" y2="400" transform="rotate(316, 711, 400)" opacity="0.94"></line><line x1="1221" y1="400" x2="201" y2="400" transform="rotate(320, 711, 400)" opacity="0.42"></line><line x1="1173.5" y1="400" x2="248.5" y2="400" transform="rotate(324, 711, 400)" opacity="0.60"></line><line x1="996" y1="400" x2="426" y2="400" transform="rotate(328, 711, 400)" opacity="0.23"></line><line x1="1323.5" y1="400" x2="98.5" y2="400" transform="rotate(332, 711, 400)" opacity="0.78"></line><line x1="1070.5" y1="400" x2="351.5" y2="400" transform="rotate(336, 711, 400)" opacity="0.98"></line><line x1="985.5" y1="400" x2="436.5" y2="400" transform="rotate(340, 711, 400)" opacity="0.60"></line><line x1="1289" y1="400" x2="133" y2="400" transform="rotate(344, 711, 400)" opacity="0.52"></line></g></svg>