<svg xmlns="http://www.w3.org/2000/svg" version="1.1" xmlns:xlink="http://www.w3.org/1999/xlink" xmlns:svgjs="http://svgjs.dev/svgjs" viewBox="0 0 1422 800" opacity="0.73"><g fill="none" stroke-width="0.5" stroke="hsl(210, 77%, 57%)" stroke-linecap="square" stroke-dasharray="23.5 0" transform="matrix(1.7,0,0,1.7,-497.7000106811522,-280)"><line x1="1120" y1="400" x2="302" y2="400" transform="rotate(0, 711, 400)" opacity="0.26"></line><line x1="897.5" y1="400" x2="524.5" y2="400" transform="rotate(3, 711, 400)" opacity="0.44"></line><line x1="335.5" y1="400" x2="1086.5" y2="400" transform="rotate(6, 711, 400)" opacity="0.34"></line><line x1="688" y1="400" x2="734" y2="400" transform="rotate(9, 711, 400)" opacity="0.88"></line><line x1="591.5" y1="400" x2="830.5" y2="400" transform="rotate(12, 711, 400)" opacity="0.30"></line><line x1="793" y1="400" x2="629" y2="400" transform="rotate(15, 711, 400)" opacity="0.48"></line><line x1="1208" y1="400" x2="214" y2="400" transform="rotate(18, 711, 400)" opacity="0.94"></line><line x1="1211.5" y1="400" x2="210.5" y2="400" transform="rotate(21, 711, 400)" opacity="0.23"></line><line x1="1052.5" y1="400" x2="369.5" y2="400" transform="rotate(24, 711, 400)" opacity="0.93"></line><line x1="1019" y1="400" x2="403" y2="400" transform="rotate(27, 711, 400)" opacity="0.28"></line><line x1="944.5" y1="400" x2="477.5" y2="400" transform="rotate(30, 711, 400)" opacity="0.36"></line><line x1="1190" y1="400" x2="232" y2="400" transform="rotate(33, 711, 400)" opacity="0.41"></line><line x1="564" y1="400" x2="858" y2="400" transform="rotate(36, 711, 400)" opacity="0.76"></line><line x1="1227.5" y1="400" x2="194.5" y2="400" transform="rotate(39, 711, 400)" opacity="0.38"></line><line x1="1219.5" y1="400" x2="202.5" y2="400" transform="rotate(42, 711, 400)" opacity="0.79"></line><line x1="810" y1="400" x2="612" y2="400" transform="rotate(45, 711, 400)" opacity="0.30"></line><line x1="390.5" y1="400" x2="1031.5" y2="400" transform="rotate(48, 711, 400)" opacity="0.60"></line><line x1="950.5" y1="400" x2="471.5" y2="400" transform="rotate(51, 711, 400)" opacity="0.84"></line><line x1="418.5" y1="400" x2="1003.5" y2="400" transform="rotate(54, 711, 400)" opacity="0.26"></line><line x1="615.5" y1="400" x2="806.5" y2="400" transform="rotate(57, 711, 400)" opacity="0.97"></line><line x1="731" y1="400" x2="691" y2="400" transform="rotate(60, 711, 400)" opacity="0.26"></line><line x1="753" y1="400" x2="669" y2="400" transform="rotate(63, 711, 400)" opacity="0.51"></line><line x1="740" y1="400" x2="682" y2="400" transform="rotate(66, 711, 400)" opacity="0.83"></line><line x1="734" y1="400" x2="688" y2="400" transform="rotate(69, 711, 400)" opacity="0.70"></line><line x1="541" y1="400" x2="881" y2="400" transform="rotate(72, 711, 400)" opacity="0.42"></line><line x1="1034.5" y1="400" x2="387.5" y2="400" transform="rotate(75, 711, 400)" opacity="0.36"></line><line x1="726" y1="400" x2="696" y2="400" transform="rotate(78, 711, 400)" opacity="0.35"></line><line x1="324" y1="400" x2="1098" y2="400" transform="rotate(81, 711, 400)" opacity="0.18"></line><line x1="1344" y1="400" x2="78" y2="400" transform="rotate(84, 711, 400)" opacity="0.34"></line><line x1="817" y1="400" x2="605" y2="400" transform="rotate(87, 711, 400)" opacity="0.46"></line><line x1="1114.5" y1="400" x2="307.5" y2="400" transform="rotate(90, 711, 400)" opacity="0.69"></line><line x1="352.5" y1="400" x2="1069.5" y2="400" transform="rotate(93, 711, 400)" opacity="0.33"></line><line x1="1136" y1="400" x2="286" y2="400" transform="rotate(96, 711, 400)" opacity="0.66"></line><line x1="1053" y1="400" x2="369" y2="400" transform="rotate(99, 711, 400)" opacity="0.99"></line><line x1="878.5" y1="400" x2="543.5" y2="400" transform="rotate(102, 711, 400)" opacity="0.62"></line><line x1="940.5" y1="400" x2="481.5" y2="400" transform="rotate(105, 711, 400)" opacity="0.55"></line><line x1="511" y1="400" x2="911" y2="400" transform="rotate(108, 711, 400)" opacity="0.42"></line><line x1="1156.5" y1="400" x2="265.5" y2="400" transform="rotate(111, 711, 400)" opacity="0.10"></line><line x1="1247" y1="400" x2="175" y2="400" transform="rotate(114, 711, 400)" opacity="0.56"></line><line x1="1318" y1="400" x2="104" y2="400" transform="rotate(117, 711, 400)" opacity="0.23"></line><line x1="422.5" y1="400" x2="999.5" y2="400" transform="rotate(120, 711, 400)" opacity="0.24"></line><line x1="978.5" y1="400" x2="443.5" y2="400" transform="rotate(123, 711, 400)" opacity="0.15"></line><line x1="952.5" y1="400" x2="469.5" y2="400" transform="rotate(126, 711, 400)" opacity="0.20"></line><line x1="1364" y1="400" x2="58" y2="400" transform="rotate(129, 711, 400)" opacity="0.72"></line><line x1="1042.5" y1="400" x2="379.5" y2="400" transform="rotate(132, 711, 400)" opacity="0.91"></line><line x1="988.5" y1="400" x2="433.5" y2="400" transform="rotate(135, 711, 400)" opacity="0.69"></line><line x1="678.5" y1="400" x2="743.5" y2="400" transform="rotate(138, 711, 400)" opacity="0.62"></line><line x1="776" y1="400" x2="646" y2="400" transform="rotate(141, 711, 400)" opacity="0.36"></line><line x1="767" y1="400" x2="655" y2="400" transform="rotate(144, 711, 400)" opacity="0.17"></line><line x1="1065.5" y1="400" x2="356.5" y2="400" transform="rotate(147, 711, 400)" opacity="0.68"></line><line x1="530" y1="400" x2="892" y2="400" transform="rotate(150, 711, 400)" opacity="0.53"></line><line x1="1121.5" y1="400" x2="300.5" y2="400" transform="rotate(153, 711, 400)" opacity="0.17"></line><line x1="493.5" y1="400" x2="928.5" y2="400" transform="rotate(156, 711, 400)" opacity="0.49"></line><line x1="734" y1="400" x2="688" y2="400" transform="rotate(159, 711, 400)" opacity="0.85"></line><line x1="395.5" y1="400" x2="1026.5" y2="400" transform="rotate(162, 711, 400)" opacity="0.09"></line><line x1="1114.5" y1="400" x2="307.5" y2="400" transform="rotate(165, 711, 400)" opacity="0.83"></line><line x1="1247.5" y1="400" x2="174.5" y2="400" transform="rotate(168, 711, 400)" opacity="0.52"></line><line x1="988.5" y1="400" x2="433.5" y2="400" transform="rotate(171, 711, 400)" opacity="0.64"></line><line x1="908.5" y1="400" x2="513.5" y2="400" transform="rotate(174, 711, 400)" opacity="0.27"></line><line x1="337.5" y1="400" x2="1084.5" y2="400" transform="rotate(177, 711, 400)" opacity="0.34"></line><line x1="599" y1="400" x2="823" y2="400" transform="rotate(180, 711, 400)" opacity="0.85"></line><line x1="700.5" y1="400" x2="721.5" y2="400" transform="rotate(183, 711, 400)" opacity="0.18"></line><line x1="1190.5" y1="400" x2="231.5" y2="400" transform="rotate(186, 711, 400)" opacity="0.86"></line><line x1="969" y1="400" x2="453" y2="400" transform="rotate(189, 711, 400)" opacity="0.73"></line><line x1="447.5" y1="400" x2="974.5" y2="400" transform="rotate(192, 711, 400)" opacity="0.53"></line><line x1="1157" y1="400" x2="265" y2="400" transform="rotate(195, 711, 400)" opacity="0.60"></line><line x1="1066.5" y1="400" x2="355.5" y2="400" transform="rotate(198, 711, 400)" opacity="0.56"></line><line x1="466" y1="400" x2="956" y2="400" transform="rotate(201, 711, 400)" opacity="0.35"></line><line x1="848.5" y1="400" x2="573.5" y2="400" transform="rotate(204, 711, 400)" opacity="0.74"></line><line x1="1222.5" y1="400" x2="199.5" y2="400" transform="rotate(207, 711, 400)" opacity="0.61"></line><line x1="1254" y1="400" x2="168" y2="400" transform="rotate(210, 711, 400)" opacity="0.18"></line><line x1="822" y1="400" x2="600" y2="400" transform="rotate(213, 711, 400)" opacity="0.10"></line><line x1="845" y1="400" x2="577" y2="400" transform="rotate(216, 711, 400)" opacity="0.26"></line><line x1="524" y1="400" x2="898" y2="400" transform="rotate(219, 711, 400)" opacity="0.92"></line><line x1="1025.5" y1="400" x2="396.5" y2="400" transform="rotate(222, 711, 400)" opacity="0.92"></line><line x1="717.5" y1="400" x2="704.5" y2="400" transform="rotate(225, 711, 400)" opacity="0.41"></line><line x1="658.5" y1="400" x2="763.5" y2="400" transform="rotate(228, 711, 400)" opacity="0.13"></line><line x1="554" y1="400" x2="868" y2="400" transform="rotate(231, 711, 400)" opacity="0.60"></line><line x1="1144" y1="400" x2="278" y2="400" transform="rotate(234, 711, 400)" opacity="0.70"></line><line x1="641.5" y1="400" x2="780.5" y2="400" transform="rotate(237, 711, 400)" opacity="0.36"></line><line x1="1090" y1="400" x2="332" y2="400" transform="rotate(240, 711, 400)" opacity="0.50"></line><line x1="801" y1="400" x2="621" y2="400" transform="rotate(243, 711, 400)" opacity="0.82"></line><line x1="579.5" y1="400" x2="842.5" y2="400" transform="rotate(246, 711, 400)" opacity="0.96"></line><line x1="1141" y1="400" x2="281" y2="400" transform="rotate(249, 711, 400)" opacity="0.65"></line><line x1="1185" y1="400" x2="237" y2="400" transform="rotate(252, 711, 400)" opacity="0.09"></line><line x1="879.5" y1="400" x2="542.5" y2="400" transform="rotate(255, 711, 400)" opacity="0.10"></line><line x1="373.5" y1="400" x2="1048.5" y2="400" transform="rotate(258, 711, 400)" opacity="0.34"></line><line x1="668" y1="400" x2="754" y2="400" transform="rotate(261, 711, 400)" opacity="0.44"></line><line x1="640.5" y1="400" x2="781.5" y2="400" transform="rotate(264, 711, 400)" opacity="0.75"></line><line x1="441" y1="400" x2="981" y2="400" transform="rotate(267, 711, 400)" opacity="0.48"></line><line x1="491" y1="400" x2="931" y2="400" transform="rotate(270, 711, 400)" opacity="0.50"></line><line x1="827" y1="400" x2="595" y2="400" transform="rotate(273, 711, 400)" opacity="0.23"></line><line x1="1270.5" y1="400" x2="151.5" y2="400" transform="rotate(276, 711, 400)" opacity="0.19"></line><line x1="801.5" y1="400" x2="620.5" y2="400" transform="rotate(279, 711, 400)" opacity="0.65"></line><line x1="531" y1="400" x2="891" y2="400" transform="rotate(282, 711, 400)" opacity="0.69"></line><line x1="1048" y1="400" x2="374" y2="400" transform="rotate(285, 711, 400)" opacity="0.69"></line><line x1="1083" y1="400" x2="339" y2="400" transform="rotate(288, 711, 400)" opacity="0.57"></line><line x1="1345" y1="400" x2="77" y2="400" transform="rotate(291, 711, 400)" opacity="0.47"></line><line x1="800.5" y1="400" x2="621.5" y2="400" transform="rotate(294, 711, 400)" opacity="0.24"></line><line x1="640" y1="400" x2="782" y2="400" transform="rotate(297, 711, 400)" opacity="0.32"></line><line x1="812.5" y1="400" x2="609.5" y2="400" transform="rotate(300, 711, 400)" opacity="0.73"></line><line x1="688" y1="400" x2="734" y2="400" transform="rotate(303, 711, 400)" opacity="0.63"></line><line x1="942" y1="400" x2="480" y2="400" transform="rotate(306, 711, 400)" opacity="0.72"></line><line x1="1267.5" y1="400" x2="154.5" y2="400" transform="rotate(309, 711, 400)" opacity="0.24"></line><line x1="1136.5" y1="400" x2="285.5" y2="400" transform="rotate(312, 711, 400)" opacity="0.43"></line><line x1="624.5" y1="400" x2="797.5" y2="400" transform="rotate(315, 711, 400)" opacity="0.27"></line><line x1="1318" y1="400" x2="104" y2="400" transform="rotate(318, 711, 400)" opacity="0.39"></line><line x1="632.5" y1="400" x2="789.5" y2="400" transform="rotate(321, 711, 400)" opacity="0.85"></line><line x1="473.5" y1="400" x2="948.5" y2="400" transform="rotate(324, 711, 400)" opacity="0.77"></line><line x1="1178" y1="400" x2="244" y2="400" transform="rotate(327, 711, 400)" opacity="0.81"></line><line x1="730.5" y1="400" x2="691.5" y2="400" transform="rotate(330, 711, 400)" opacity="0.66"></line><line x1="773.5" y1="400" x2="648.5" y2="400" transform="rotate(333, 711, 400)" opacity="0.47"></line><line x1="612" y1="400" x2="810" y2="400" transform="rotate(336, 711, 400)" opacity="0.44"></line><line x1="1132" y1="400" x2="290" y2="400" transform="rotate(339, 711, 400)" opacity="0.19"></line><line x1="1321" y1="400" x2="101" y2="400" transform="rotate(342, 711, 400)" opacity="0.67"></line><line x1="1113" y1="400" x2="309" y2="400" transform="rotate(345, 711, 400)" opacity="0.66"></line><line x1="640.5" y1="400" x2="781.5" y2="400" transform="rotate(348, 711, 400)" opacity="0.68"></line><line x1="1199" y1="400" x2="223" y2="400" transform="rotate(351, 711, 400)" opacity="0.73"></line><line x1="453.5" y1="400" x2="968.5" y2="400" transform="rotate(354, 711, 400)" opacity="0.07"></line><line x1="1342" y1="400" x2="80" y2="400" transform="rotate(357, 711, 400)" opacity="0.74"></line><line x1="935.5" y1="400" x2="486.5" y2="400" transform="rotate(360, 711, 400)" opacity="0.67"></line><line x1="824.5" y1="400" x2="597.5" y2="400" transform="rotate(363, 711, 400)" opacity="0.23"></line><line x1="731.5" y1="400" x2="690.5" y2="400" transform="rotate(366, 711, 400)" opacity="0.48"></line><line x1="1334" y1="400" x2="88" y2="400" transform="rotate(369, 711, 400)" opacity="0.58"></line><line x1="733" y1="400" x2="689" y2="400" transform="rotate(372, 711, 400)" opacity="0.78"></line><line x1="1209.5" y1="400" x2="212.5" y2="400" transform="rotate(375, 711, 400)" opacity="0.12"></line><line x1="605" y1="400" x2="817" y2="400" transform="rotate(378, 711, 400)" opacity="0.88"></line><line x1="418" y1="400" x2="1004" y2="400" transform="rotate(381, 711, 400)" opacity="0.73"></line><line x1="1180" y1="400" x2="242" y2="400" transform="rotate(384, 711, 400)" opacity="0.29"></line></g></svg>